<svg width="81" height="81" viewBox="0 0 81 81" fill="none" xmlns="http://www.w3.org/2000/svg">
<g clip-path="url(#clip0_204_2)">
<rect width="81" height="81" fill="white"/>
<path d="M21.3105 59.0938C19.0814 59.0938 17.9668 58.5104 17.9668 57.3438V21.7812C17.9668 21.1771 18.2376 20.7292 18.7793 20.4375C19.321 20.125 20.1647 19.9688 21.3105 19.9688H23.248C24.3939 19.9688 25.2376 20.125 25.7793 20.4375C26.321 20.7292 26.5918 21.1771 26.5918 21.7812V36.6562L26.8105 36.7188L36.4668 21.0312C36.8835 20.3229 37.9876 19.9688 39.7793 19.9688H42.4043C43.4251 19.9688 44.196 20.0521 44.7168 20.2188C45.2585 20.3646 45.5293 20.5625 45.5293 20.8125C45.5293 21.1458 45.373 21.5417 45.0605 22L34.3418 38.4375L46.5293 57.0938C46.821 57.5521 46.9668 57.9375 46.9668 58.25C46.9668 58.8125 45.9355 59.0938 43.873 59.0938H40.623C39.7272 59.0938 38.998 59.0208 38.4355 58.875C37.873 58.7292 37.4772 58.4479 37.248 58.0312L26.8105 41.1562L26.5918 41.1875V57.3438C26.5918 58.5104 25.4772 59.0938 23.248 59.0938H21.3105Z" fill="black"/>
<path d="M58.5098 59.3076C57.4297 59.3076 56.459 59.0547 55.5977 58.5488C54.7363 58.0293 54.0869 57.3662 53.6494 56.5596L53.5469 56.9902C53.4238 57.5234 53.3281 57.8994 53.2598 58.1182C53.1641 58.501 52.9521 58.7539 52.624 58.877C52.2959 59 51.8105 59.0615 51.168 59.0615H50.7373C49.2744 59.0615 48.543 58.6787 48.543 57.9131V32.6885C48.543 32.292 48.7207 31.998 49.0762 31.8066C49.4316 31.6016 49.9854 31.499 50.7373 31.499H51.7422C53.2051 31.499 53.9365 31.8955 53.9365 32.6885V40.7686C54.9619 40.0166 56.1992 39.6406 57.6484 39.6406C59.2617 39.6406 60.6426 40.0439 61.791 40.8506C62.9531 41.6436 63.835 42.7783 64.4365 44.2549C65.0381 45.7314 65.3389 47.4609 65.3389 49.4434C65.3389 51.5078 65.0449 53.2852 64.457 54.7754C63.8828 56.252 63.0762 57.3799 62.0371 58.1592C61.0117 58.9248 59.8359 59.3076 58.5098 59.3076ZM56.9307 54.8779C58.8857 54.8779 59.8633 53.0664 59.8633 49.4434C59.8633 45.7383 58.7354 43.8857 56.4795 43.8857C55.6455 43.8857 54.7979 44.1182 53.9365 44.583V52.7246C54.7705 54.1602 55.7686 54.8779 56.9307 54.8779Z" fill="#EC860F"/>
</g>
<defs>
<clipPath id="clip0_204_2">
<rect width="81" height="81" fill="white"/>
</clipPath>
</defs>
</svg>
